#!OML:ASF H:\Punching\Project 1\Capture day 1\Session 1\female.ASF
:FULLY-SPECIFIED
:DEGREES
1225
root 3.53544 14.762 10.4911 23.6759 -20.2609 -8.20144
lowerback 4.95956 -2.18918 -1.31468
upperback -3.54754 -2.97425 1.24238
thorax -6.34308 -1.38504 2.33877
lowerneck -5.87333 12.2552 20.2158
upperneck 12.3958 16.4782 -14.4097
head 7.68337 8.03851 -6.22129
rclavicle 3.69739e-014 -2.22639e-014
rhumerus 5.54585 38.3353 -74.1996
rradius 129.551
rwrist -18.4856
rhand -22.6363 2.14454
rfingers 7.12502
rthumb 3.79433 -27.8014
lclavicle 3.69739e-014 -2.22639e-014
lhumerus 4.99393 -43.954 59.5506
lradius 46.764
lwrist -9.81902
lhand -15.7404 5.15537
lfingers 7.12502
lthumb 10.4506 34.8756
rfemur -6.81593 5.57696 6.13384
rtibia 9.39609
rfoot -14.0863 -11.5311
rtoes -16.3613
lfemur -56.9476 9.82026 -8.99865
ltibia 52.6756
lfoot -13.1558 9.46002
ltoes -0.285237
1226
root 3.512 14.77 10.4651 23.443 -20.3714 -7.99541
lowerback 4.8736 -2.20366 -1.38542
upperback -3.57627 -3.00136 1.1945
thorax -6.32177 -1.39676 2.32782
lowerneck -5.90289 12.1986 20.1573
upperneck 12.5374 16.4114 -14.3869
head 7.71503 8.00441 -6.21483
rclavicle -4.33351e-014 -1.74931e-014
rhumerus 5.61934 38.4334 -74.1309
rradius 129.524
rwrist -18.469
rhand -22.6183 2.15072
rfingers 7.12502
rthumb 3.81169 -27.7949
lclavicle -4.33351e-014 -1.74931e-014
lhumerus 4.84175 -43.9022 59.7315
lradius 47.335
lwrist -10.168
lhand -15.6345 5.3319
lfingers 7.12502
lthumb 10.5527 35.047
rfemur -7.43552 5.4558 5.94416
rtibia 10.7798
rfoot -14.7614 -11.0415
rtoes -16.489
lfemur -56.5661 9.78423 -9.0337
ltibia 52.2702
lfoot -12.976 9.45846
ltoes -0.331753
1227
root 3.48608 14.778 10.4371 23.1869 -20.472 -7.775
lowerback 4.79452 -2.22305 -1.45802
upperback -3.60411 -3.03471 1.15387
thorax -6.30271 -1.41128 2.32632
lowerneck -5.9336 12.1503 20.0971
upperneck 12.691 16.3609 -14.3833
head 7.75551 7.97671 -6.212
rclavicle -8.0309e-014 1.27222e-014
rhumerus 5.68434 38.5253 -74.0515
rradius 129.455
rwrist -18.3761
rhand -22.5696 2.10934
rfingers 7.12502
rthumb 3.85877 -27.8355
lclavicle -8.0309e-014 1.27222e-014
lhumerus 4.60225 -43.7769 59.9856
lradius 48.0314
lwrist -10.3935
lhand -15.5352 5.51884
lfingers 7.12502
lthumb 10.6486 35.229
rfemur -7.98538 5.40314 5.7504
rtibia 12.0583
rfoot -15.383 -10.6545
rtoes -16.6722
lfemur -56.1648 9.74332 -9.06877
ltibia 51.8468
lfoot -12.7797 9.45259
ltoes -0.387574
1228
root 3.45771 14.7855 10.4072 22.9074 -20.5608 -7.54512
lowerback 4.72457 -2.24949 -1.52984
upperback -3.63188 -3.07684 1.12392
thorax -6.28784 -1.42985 2.33676
lowerneck -5.95844 12.1115 20.0332
upperneck 12.8522 16.3291 -14.397
head 7.8022 7.95688 -6.21181
rclavicle -2.22639e-014 3.33958e-014
rhumerus 5.74303 38.62 -73.9581
rradius 129.347
rwrist -18.2212
rhand -22.5008 2.04038
rfingers 7.12502
rthumb 3.92517 -27.9032
lclavicle -2.22639e-014 3.33958e-014
lhumerus 4.26237 -43.5638 60.3244
lradius 48.8547
lwrist -10.4604
lhand -15.4309 5.70002
lfingers 7.12502
lthumb 10.7491 35.405
rfemur -8.46933 5.34874 5.5667
rtibia 13.245
rfoot -15.9642 -10.3049
rtoes -16.8618
lfemur -55.7436 9.69699 -9.09851
ltibia 51.4097
lfoot -12.5675 9.44405
ltoes -0.45378
1229
root 3.42682 14.7926 10.3748 22.6053 -20.6401 -7.31387
lowerback 4.66754 -2.27689 -1.59115
upperback -3.65934 -3.11915 1.10038
thorax -6.28022 -1.44868 2.34859
lowerneck -5.97349 12.0765 19.9663
upperneck 13.0138 16.3066 -14.4195
head 7.84961 7.94112 -6.21333
rclavicle -2.42517e-014 6.36111e-015
rhumerus 5.78924 38.7123 -73.855
rradius 129.206
rwrist -18.0247
rhand -22.4217 1.95954
rfingers 7.12502
rthumb 4.00158 -27.9826
lclavicle -2.42517e-014 6.36111e-015
lhumerus 3.8475 -43.2964 60.7189
lradius 49.8027
lwrist -10.3373
lhand -15.3038 5.86463
lfingers 7.12502
lthumb 10.8717 35.5632
rfemur -8.89187 5.29693 5.40316
rtibia 14.3473
rfoot -16.5025 -9.9987
rtoes -17.0751
lfemur -55.3016 9.6474 -9.11255
ltibia 50.9609
lfoot -12.3397 9.43505
ltoes -0.532856
1230
root 3.39339 14.7991 10.3403 22.2813 -20.7109 -7.09037
lowerback 4.62197 -2.30435 -1.63346
upperback -3.68231 -3.15981 1.08265
thorax -6.27512 -1.46735 2.35609
lowerneck -5.98646 12.0474 19.9008
upperneck 13.1779 16.2942 -14.4485
head 7.90009 7.92984 -6.21575
rclavicle 2.50469e-014 1.74931e-014
rhumerus 5.83214 38.8025 -73.7366
rradius 129.047
rwrist -17.8222
rhand -22.3369 1.86812
rfingers 7.12502
rthumb 4.08346 -28.0725
lclavicle 2.50469e-014 1.74931e-014
lhumerus 3.37151 -42.9947 61.1468
lradius 50.8724
lwrist -10.0173
lhand -15.1483 6.02156
lfingers 7.12502
lthumb 11.0217 35.7122
rfemur -9.25583 5.24563 5.27048
rtibia 15.3751
rfoot -17.0085 -9.73372
rtoes -17.2881
lfemur -54.8353 9.59705 -9.10123
ltibia 50.5022
lfoot -12.0974 9.42634
ltoes -0.608963
1231
root 3.35743 14.8051 10.3035 21.9358 -20.7754 -6.86857
lowerback 4.58837 -2.32681 -1.66051
upperback -3.70151 -3.19266 1.06521
thorax -6.27405 -1.48276 2.35507
lowerneck -6.00741 12.0206 19.8377
upperneck 13.3493 16.284 -14.4766
head 7.95503 7.91934 -6.21753
rclavicle 2.28602e-014 -2.22639e-014
rhumerus 5.86868 38.8835 -73.6007
rradius 128.881
rwrist -17.644
rhand -22.2436 1.7713
rfingers 7.12502
rthumb 4.1735 -28.1676
lclavicle 2.28602e-014 -2.22639e-014
lhumerus 2.8448 -42.6435 61.6118
lradius 52.0454
lwrist -9.56039
lhand -14.9323 6.1577
lfingers 7.12502
lthumb 11.2301 35.8371
rfemur -9.56734 5.19188 5.1631
rtibia 16.3362
rfoot -17.4927 -9.50975
rtoes -17.4972
lfemur -54.3446 9.54144 -9.0706
ltibia 50.0319
lfoot -11.8408 9.42444
ltoes -0.694249
1232
root 3.31861 14.8105 10.2643 21.5737 -20.8481 -6.66175
lowerback 4.56382 -2.33862 -1.67037
upperback -3.7152 -3.20986 1.04955
thorax -6.27393 -1.49113 2.34509
lowerneck -6.03855 11.9967 19.7767
upperneck 13.5309 16.2765 -14.5006
head 8.01545 7.90986 -6.21732
rclavicle -1.82882e-014 -4.37326e-014
rhumerus 5.9044 38.9619 -73.4456
rradius 128.717
rwrist -17.507
rhand -22.152 1.68855
rfingers 7.12502
rthumb 4.26197 -28.2486
lclavicle -1.82882e-014 -4.37326e-014
lhumerus 2.27935 -42.26 62.0917
lradius 53.3195
lwrist -8.98093
lhand -14.6429 6.30136
lfingers 7.12502
lthumb 11.5092 35.9654
rfemur -9.83783 5.15754 5.0924
rtibia 17.2372
rfoot -17.9498 -9.33186
rtoes -17.712
lfemur -53.8247 9.49676 -9.00881
ltibia 49.5492
lfoot -11.5692 9.43304
ltoes -0.800387
1233
root 3.27701 14.8154 10.2228 21.1972 -20.9288 -6.46675
lowerback 4.54506 -2.33685 -1.6627
upperback -3.72994 -3.20742 1.03746
thorax -6.27994 -1.49035 2.32753
lowerneck -6.06444 11.968 19.7049
upperneck 13.7233 16.2649 -14.5189
head 8.07638 7.89845 -6.2147
rclavicle -9.93923e-015 2.14687e-014
rhumerus 5.92543 39.0373 -73.2654
rradius 128.563
rwrist -17.419
rhand -22.0539 1.61972
rfingers 7.12502
rthumb 4.35675 -28.3155
lclavicle -9.93923e-015 2.14687e-014
lhumerus 1.66472 -41.8493 62.6039
lradius 54.6861
lwrist -8.32464
lhand -14.2635 6.46154
lfingers 7.12502
lthumb 11.8751 36.1048
rfemur -10.0735 5.14014 5.05634
rtibia 18.0884
rfoot -18.3913 -9.19449
rtoes -17.9162
lfemur -53.2763 9.45596 -8.91684
ltibia 49.0514
lfoot -11.283 9.45715
ltoes -0.932186
1234
root 3.23256 14.8199 10.1791 20.8096 -21.0178 -6.28196
lowerback 4.53036 -2.32191 -1.63971
upperback -3.74873 -3.18602 1.02952
thorax -6.29407 -1.48062 2.30431
lowerneck -6.08493 11.9344 19.6205
upperneck 13.935 16.2502 -14.5314
head 8.14056 7.88538 -6.20928
rclavicle 5.74488e-014 2.06736e-014
rhumerus 5.9271 39.1165 -73.0606
rradius 128.423
rwrist -17.3742
rhand -21.9488 1.58385
rfingers 7.12502
rthumb 4.4582 -28.3492
lclavicle 5.74488e-014 2.06736e-014
lhumerus 0.990324 -41.4036 63.1549
lradius 56.1407
lwrist -7.63008
lhand -13.7882 6.65448
lfingers 7.12502
lthumb 12.3334 36.2707
rfemur -10.2787 5.14057 5.05484
rtibia 18.8949
rfoot -18.8136 -9.09693
rtoes -18.1038
lfemur -52.7014 9.41508 -8.79422
ltibia 48.5366
lfoot -10.9804 9.49949
ltoes -1.08412
1235
root 3.18529 14.8241 10.1334 20.4122 -21.1102 -6.10112
lowerback 4.51212 -2.29737 -1.60433
upperback -3.77243 -3.15052 1.0272
thorax -6.31233 -1.46425 2.2787
lowerneck -6.09112 11.896 19.5147
upperneck 14.1647 16.2353 -14.5396
head 8.20591 7.87191 -6.20029
rclavicle -4.03533e-014 -1.74931e-014
rhumerus 5.92089 39.2053 -72.8222
rradius 128.296
rwrist -17.3592
rhand -21.8217 1.54765
rfingers 7.12502
rthumb 4.58098 -28.3828
lclavicle -4.03533e-014 -1.74931e-014
lhumerus 0.256231 -40.9344 63.738
lradius 57.6781
lwrist -6.90864
lhand -13.2364 6.89105
lfingers 7.12502
lthumb 12.8653 36.4745
rfemur -10.4544 5.15035 5.08438
rtibia 19.6624
rfoot -19.2239 -9.03899
rtoes -18.2933
lfemur -52.1013 9.36688 -8.64712
ltibia 48.0009
lfoot -10.6638 9.5599
ltoes -1.26385
